<svg width="300" height="300" viewBox="0 0 300 300" xmlns="http://www.w3.org/2000/svg">
  <g>
    <path fill="#fa7900" stroke="#fa7900" stroke-width="8.64027" stroke-linecap="round" stroke-linejoin="round" d="m 138.46223,24 v 63.915379 h 22.7016 V 24 Z"/>
    <path fill="#fa7900" d="m 158.69074,145.44894 v 3.48362 h -3.47953 v 2.14562 h 3.47953 v 2.30678 a 1.07078,1.07078 45 0 0 1.07078,1.07078 h 1.07078 v -3.37756 h 4.04196 l -0.65625,-1.07281 v -1.07281 h -3.38571 v -2.539 a 0.94462475,0.94462475 45 0 0 -0.94462,-0.94462 z" transform="matrix(9.9141502,0,0,9.9141502,-1434.0464,-1336.5031)"/>
    <path fill="#314c48" stroke="#314c48" stroke-width="8.53847" stroke-linecap="round" stroke-linejoin="round" d="m 138.78526,212.32748 v 63.42253 h 22.42947 v -63.42253 h -6.25326 -9.96404 z"/>
    <path fill="#314c48" d="m 160.8323,151.07818 v 3.37756 h -1.07078 c -0.59138,0 -1.07078,-0.4794 -1.07078,-1.07078 v -2.30678 h -3.47953 v -1.07281 l -0.4112,-1.07281 h 3.89073 c 0.35934,0.15769 0.72246,0.21823 0.96454,0.5208 0.24208,0.30259 0,0.72624 0.36312,1.08936 0.36311,0.36312 0.8139,0.53546 0.8139,0.53546 z" transform="matrix(9.9141502,0,0,9.9141502,-1434.0464,-1336.5031)"/>
  </g>
</svg>
