<?xml version="1.0" encoding="UTF-8" standalone="no"?>
<!-- Created with Inkscape (http://www.inkscape.org/) -->

<svg
   width="300"
   height="300"
   viewBox="0 0 300 300"
   version="1.1"
   id="svg1"
   xml:space="preserve"
   xmlns="http://www.w3.org/2000/svg"
   xmlns:svg="http://www.w3.org/2000/svg"><defs
     id="defs1" /><g
     id="layer1"><path
       d="m 149.98734,44.771348 c -44.0777,0 -79.814459,35.736763 -79.814459,79.814462 0,44.07771 35.736759,79.81248 79.814459,79.81248 44.07771,0 79.81248,-35.73477 79.81248,-79.81248 0,-44.077698 -35.73477,-79.814461 -79.81248,-79.814462 z m 0,0.388765 c 43.86712,0 79.42371,35.55859 79.42371,79.425697 0,43.86712 -35.55659,79.42371 -79.42371,79.42371 -43.86712,0 -79.425694,-35.55659 -79.425694,-79.42371 0,-43.867107 35.558574,-79.425696 79.425694,-79.425697 z"
       id="path572"
       style="color:#000000;font-style:normal;font-variant:normal;font-weight:normal;font-stretch:normal;font-size:medium;line-height:normal;font-family:sans-serif;font-variant-ligatures:normal;font-variant-position:normal;font-variant-caps:normal;font-variant-numeric:normal;font-variant-alternates:normal;font-variant-east-asian:normal;font-feature-settings:normal;font-variation-settings:normal;text-indent:0;text-align:start;text-decoration-line:none;text-decoration-style:solid;text-decoration-color:#000000;letter-spacing:normal;word-spacing:normal;text-transform:none;writing-mode:lr-tb;direction:ltr;text-orientation:mixed;dominant-baseline:auto;baseline-shift:baseline;text-anchor:start;white-space:normal;shape-padding:0;shape-margin:0;inline-size:0;clip-rule:nonzero;display:none;overflow:visible;visibility:visible;isolation:auto;mix-blend-mode:normal;color-interpolation:sRGB;color-interpolation-filters:linearRGB;solid-color:#000000;solid-opacity:1;fill:none;fill-opacity:1;fill-rule:nonzero;stroke:#2b375f;stroke-width:0.192899;stroke-linecap:butt;stroke-linejoin:miter;stroke-miterlimit:4;stroke-dasharray:none;stroke-dashoffset:0;stroke-opacity:1;color-rendering:auto;image-rendering:auto;shape-rendering:auto;text-rendering:auto;enable-background:accumulate;stop-color:#000000;stop-opacity:1" /><path
       style="fill:#fa7900;fill-opacity:1;stroke:#fa7900;stroke-width:1.84199;stroke-linecap:round;stroke-linejoin:round;stroke-dasharray:none;stroke-opacity:1;paint-order:stroke fill markers"
       d="m 144.9332,125.75082 v 13.62591 h 4.83968 v -13.62591 z"
       id="path868-9" /><path
       style="font-size:59.9092px;font-family:Aurallia;-inkscape-font-specification:'Aurallia, Normal';fill:#314c48;fill-opacity:1;stroke:#314c48;stroke-width:2.70236;stroke-linecap:square;stroke-dasharray:none;stroke-opacity:1;paint-order:stroke fill markers"
       d="m 117.36458,160.24703 h 3.35859 l -0.008,12.0222 c -0.003,4.08627 1.06354,6.43728 4.86992,6.43728 l 7.16499,-4.31019 v -1.11952 c -1.67929,0.89563 -3.47053,1.73526 -4.75799,1.67929 -1.34343,-0.11184 -2.23905,-1.11953 -2.23905,-3.91834 l 0.008,-10.79072 h 5.10235 l 0.50378,-1.71828 h -5.60613 l -0.008,-15.7031 h -1.11952 c -1.51136,3.97433 -3.23935,14.63954 -7.26964,15.7031 z"
       id="path32-8" /><path
       style="font-size:59.9092px;font-family:Aurallia;-inkscape-font-specification:'Aurallia, Normal';fill:#314c48;fill-opacity:1;stroke:#314c48;stroke-width:2.70236;stroke-linecap:square;stroke-dasharray:none;stroke-opacity:1;paint-order:stroke fill markers"
       d="m 87.893551,155.70022 c 2.01516,-1.95917 4.42215,-2.23905 4.42215,0.2799 v 17.74449 c 0,2.23907 0.50378,4.9819 3.8064,4.9819 l 5.653609,-4.31019 v -1.11952 c -2.015139,1.95918 -4.422129,2.23906 -4.422129,-0.27989 v -15.44946 c 0.78367,-2.12711 2.966739,-4.19824 5.317759,-4.19824 3.3026,0 4.75798,2.8548 4.75798,9.2361 v 11.1393 c 0,2.23907 0.50377,4.9819 3.80638,4.9819 l 5.65361,-4.31019 v -1.11952 c -2.01514,1.95918 -4.42214,2.23906 -4.42214,-0.27989 v -13.26639 c 0,-4.81397 -1.6233,-9.12417 -7.50082,-9.12417 -3.19064,0 -6.381279,2.46298 -7.612769,4.98192 v -0.33586 c 0,-2.23905 -0.50379,-4.98189 -3.80639,-4.98189 l -5.65364,4.31018 z"
       id="path31-6" /><path
       style="font-size:59.9092px;font-family:Aurallia;-inkscape-font-specification:'Aurallia, Normal';fill:#314c48;fill-opacity:1;stroke:#314c48;stroke-width:2.70236;stroke-linecap:square;stroke-dasharray:none;stroke-opacity:1;paint-order:stroke fill markers"
       d="m 73.238711,179.26629 c 7.16497,0 13.43434,-5.70962 13.43434,-14.55387 0,-8.84427 -6.26937,-14.55385 -13.43434,-14.55385 -7.16497,0 -13.43433,5.70958 -13.43433,14.55385 0,8.84425 6.26936,14.55387 13.43433,14.55387 z m -8.39645,-14.55387 c 0,-9.06818 4.36616,-13.43435 8.39645,-13.43435 4.0303,0 8.39646,4.36617 8.39646,13.43435 0,9.06816 -4.36616,13.43433 -8.39646,13.43433 -4.03029,0 -8.39645,-4.36617 -8.39645,-13.43433 z"
       id="path15-5" /><path
       style="font-size:59.9092px;font-family:Aurallia;-inkscape-font-specification:'Aurallia, Normal';fill:#314c48;fill-opacity:1;stroke:#314c48;stroke-width:2.63503;stroke-linecap:square;stroke-dasharray:none;stroke-opacity:1;paint-order:stroke fill markers"
       d="m 34.532841,126.02656 v 0.75208 c 1.45167,0.0753 3.8202,2.10584 3.8202,5.49019 v 40.16099 c 0,3.38435 -2.36853,5.41497 -3.8202,5.49017 v 0.75207 h 15.28076 v -0.75207 c -1.45167,-0.0753 -3.82018,-2.10582 -3.82018,-5.49017 v -18.62591 h 6.2651 c 2.0629,0 3.59098,0.60166 4.20221,3.00831 h 0.76404 v -7.52079 h -0.76404 c -0.61123,2.40665 -2.13931,3.00832 -4.20221,3.00832 h -6.2651 v -24.76902 h 8.02239 c 7.02915,0.0752 9.39766,1.80498 11.919,6.09183 l 0.76403,-0.0753 -3.13255,-7.5208 z"
       id="text838-0" /><path
       style="fill:#fa7900;fill-opacity:1;stroke:none;stroke-width:0.680413;stroke-linecap:square;stroke-linejoin:miter;stroke-dasharray:none;stroke-opacity:1;paint-order:stroke fill markers"
       d="m 158.69074,145.44894 v 3.31444 h -3.47953 v 2.83881 h 3.47953 v 1.78277 a 1.07078,1.07078 45 0 0 1.07078,1.07078 h 1.07078 v -2.85355 h 4.04196 l -0.65625,-1.59682 v -1.24199 h -3.38571 v -2.36982 a 0.94462475,0.94462475 45 0 0 -0.94462,-0.94462 z"
       id="path865-28"
       transform="matrix(2.3440796,0,0,2.3440796,-227.1894,-198.85654)" /><path
       style="fill:#314c48;fill-opacity:1;stroke:#314c48;stroke-width:1.82029;stroke-linecap:round;stroke-linejoin:round;stroke-dasharray:none;stroke-opacity:1;paint-order:stroke fill markers"
       d="m 144.9622,165.89975 v 13.52084 h 4.78167 v -13.52084 h -1.33312 -2.1242 z"
       id="path884-6" /><path
       d="m 149.81432,156.51106 v 6.68895 h -2.50999 c -1.38624,0 -2.51,-1.12375 -2.51,-2.50999 v -4.17896 h -8.15629 v -3.74307 l -0.96389,-2.91131 h 9.12018 c 0.84233,0.36964 1.69351,0.51156 2.26096,1.2208 0.56746,0.7093 0,3.32724 0.85118,4.17841 0.85116,0.85119 1.90785,1.25517 1.90785,1.25517 z"
       style="color:#000000;font-style:normal;font-variant:normal;font-weight:normal;font-stretch:normal;font-size:medium;line-height:normal;font-family:sans-serif;font-variant-ligatures:normal;font-variant-position:normal;font-variant-caps:normal;font-variant-numeric:normal;font-variant-alternates:normal;font-variant-east-asian:normal;font-feature-settings:normal;font-variation-settings:normal;text-indent:0;text-align:start;text-decoration-line:none;text-decoration-style:solid;text-decoration-color:#000000;letter-spacing:normal;word-spacing:normal;text-transform:none;writing-mode:lr-tb;direction:ltr;text-orientation:mixed;dominant-baseline:auto;baseline-shift:baseline;text-anchor:start;white-space:normal;shape-padding:0;shape-margin:0;inline-size:0;clip-rule:nonzero;display:inline;overflow:visible;visibility:visible;isolation:auto;mix-blend-mode:normal;color-interpolation:sRGB;color-interpolation-filters:linearRGB;solid-color:#000000;solid-opacity:1;vector-effect:none;fill:#314c48;fill-opacity:1;fill-rule:nonzero;stroke:none;stroke-width:2.34408;stroke-linecap:square;stroke-linejoin:miter;stroke-miterlimit:4;stroke-dasharray:none;stroke-dashoffset:0;stroke-opacity:1;-inkscape-stroke:none;paint-order:stroke fill markers;color-rendering:auto;image-rendering:auto;shape-rendering:auto;text-rendering:auto;enable-background:accumulate;stop-color:#000000"
       id="path1-3-0" /><path
       style="font-size:69.8922px;font-family:'BN Slabby Bold';-inkscape-font-specification:'BN Slabby Bold, Normal';letter-spacing:-1.90539px;fill:#fa7900;stroke-width:2.64615"
       d="m 272.46289,147.08398 c -4.22162,0 -5.27654,5.27673 -5.73828,6.92579 v -5.93555 h -13.45703 v 7.65234 c 2.44062,0 3.16645,1.12072 3.23242,3.09961 v 9.63086 0.19727 c 0,2.63851 -0.46199,3.6289 -3.23242,3.6289 v 7.65039 h 16.7539 v -7.65039 c -2.57255,0 -3.29687,-1.12312 -3.29687,-3.16797 v -10.02539 c 0,-1.78099 0.26341,-3.6289 1.38477,-3.6289 1.31925,0 1.3195,2.17773 4.68359,2.17773 2.50658,0 4.35351,-2.10988 4.35351,-5.67187 0,-2.50659 -0.92373,-4.88282 -4.68359,-4.88282 z"
       id="path110" /><path
       id="path111-8"
       style="font-size:69.8922px;font-family:'BN Slabby Bold';-inkscape-font-specification:'BN Slabby Bold, Normal';letter-spacing:-1.90539px;fill:#fa7900;stroke-width:2.64615"
       d="m 242.5625,132.90234 c -3.10024,0.066 -5.67145,2.63805 -5.60547,5.73829 0.066,3.29814 2.57251,5.74023 5.80469,5.74023 3.10024,0 5.60547,-2.70595 5.60547,-5.74023 -0.066,-3.23215 -2.63848,-5.73829 -5.80469,-5.73829 z m -34.41211,14.11719 c -9.10285,0 -15.17188,7.51877 -15.17188,17.28125 0,9.76247 6.06903,16.62305 15.17188,16.62305 5.60683,0 8.90597,-3.56187 10.02734,-5.21094 l 0.13086,4.2207 h 13.06055 v -7.65039 c -2.50658,0 -3.23287,-1.12162 -3.29883,-3.23242 v -9.5 c 0,-2.77043 0.46243,-3.82422 3.29883,-3.82422 v -7.65234 h -13.52148 v 4.02344 c -0.92348,-2.3087 -4.42025,-5.07813 -9.69727,-5.07813 z M 234,148.07422 v 7.7168 c 2.44062,0 3.16646,1.05626 3.23242,3.03515 v 9.69727 0.13086 c 0,2.70447 -0.46198,3.69336 -3.23242,3.69336 V 180 h 16.75391 v -7.65234 c -2.57255,0 -3.29688,-1.18758 -3.29688,-3.23243 v -21.04101 z m -23.27734,7.58594 c 4.4195,0 7.125,3.62764 7.125,8.37695 v 0.26367 c 0,4.22161 -2.7055,8.04688 -7.125,8.04688 -4.15565,0 -7.25586,-3.49528 -7.25586,-8.31055 0,-4.94721 3.10021,-8.37695 7.25586,-8.37695 z" /><path
       style="font-size:69.8922px;font-family:'BN Slabby Bold';-inkscape-font-specification:'BN Slabby Bold, Normal';letter-spacing:-1.90539px;fill:#fa7900;stroke-width:2.64615"
       d="m 160.88672,125.43555 v 8.01172 h 0.72656 c 1.5831,0 3.23242,0.12571 3.23242,2.3789 v 33.78321 c 0,0.81364 -0.26394,1.37836 -0.59375,1.7539 -0.65963,0.56329 -1.64923,0.625 -2.63867,0.625 h -0.72656 V 180 h 18.93164 v -8.01172 h -0.79102 c -1.5831,0 -3.16601,-0.12572 -3.16601,-2.3789 v -12.71094 h 7.98047 c 8.04745,0 15.10547,-6.52115 15.10547,-15.03321 0,-8.19912 -6.79417,-16.42968 -15.10547,-16.42968 z m 14.97461,8.01172 h 6.33203 c 3.43007,0 5.47461,5.22594 5.47461,8.41796 0,3.19202 -2.11051,7.14844 -5.47461,7.14844 h -6.33203 z"
       id="path55-2" /><text
       xml:space="preserve"
       style="font-style:normal;font-variant:normal;font-weight:normal;font-stretch:normal;font-size:34.384px;font-family:'BN Slabby Bold';-inkscape-font-specification:'BN Slabby Bold, Normal';font-variant-ligatures:normal;font-variant-caps:normal;font-variant-numeric:normal;font-variant-east-asian:normal;text-align:start;writing-mode:lr-tb;direction:ltr;text-anchor:start;fill:#fa7900;fill-opacity:1;stroke-width:4.32556;stroke-dasharray:none"
       x="236.09737"
       y="207.63441"
       id="text108"><tspan
         id="tspan108"
         x="236.09737"
         y="207.63441"
         style="fill:#fa7900;fill-opacity:1;stroke-width:4.32556">AI</tspan></text></g></svg>
