<svg width="300" height="300" viewBox="0 0 300 300" xmlns="http://www.w3.org/2000/svg">
  <g>
    <path fill="#fa7900" stroke="#fa7900" stroke-width="2.79782" stroke-linecap="round" stroke-linejoin="round" d="m 138.95368,109.09801 v 20.69654 h 7.35104 v -20.69654 z"/>
    <path fill="#314c48" stroke="#314c48" stroke-width="1.9458" stroke-linecap="square" d="m 105.77949,157.5163 h 3.35859 l -0.008,12.0222 c -0.003,4.08627 1.06354,6.43728 4.86992,6.43728 l 7.16499,-4.31019 v -1.11952 c -1.67929,0.89563 -3.47053,1.73526 -4.75799,1.67929 -1.34343,-0.11184 -2.23905,-1.11953 -2.23905,-3.91834 l 0.008,-10.79072 h 5.10235 l 0.50378,-1.71828 h -5.60613 l -0.008,-15.7031 h -1.11952 c -1.51136,3.97433 -3.23935,14.63954 -7.26964,15.7031 z"/>
    <path fill="#314c48" stroke="#314c48" stroke-width="1.9458" stroke-linecap="square" d="m 76.308448,152.96949 c 2.015163,-1.95917 4.422154,-2.23905 4.422154,0.2799 v 17.74449 c 0,2.23907 0.503779,4.9819 3.806396,4.9819 l 5.653614,-4.31019 v -1.11952 c -2.015144,1.95918 -4.422135,2.23906 -4.422135,-0.27989 v -15.44946 c 0.783665,-2.12711 2.966746,-4.19824 5.317769,-4.19824 3.302599,0 4.757978,2.8548 4.757978,9.2361 v 11.1393 c 0,2.23907 0.50377,4.9819 3.80638,4.9819 l 5.653616,-4.31019 v -1.11952 c -2.01514,1.95918 -4.42214,2.23906 -4.42214,-0.27989 v -13.26639 c 0,-4.81397 -1.623306,-9.12417 -7.500822,-9.12417 -3.190646,0 -6.381293,2.46298 -7.612781,4.98192 v -0.33586 c 0,-2.23905 -0.503789,-4.98189 -3.806387,-4.98189 l -5.653642,4.31018 z"/>
    <path fill="#314c48" stroke="#314c48" stroke-width="1.9458" stroke-linecap="square" d="m 61.653613,176.53556 c 7.164969,0 13.434341,-5.70962 13.434341,-14.55387 0,-8.84427 -6.269372,-14.55385 -13.434341,-14.55385 -7.164978,0 -13.434331,5.70958 -13.434331,14.55385 0,8.84425 6.269353,14.55387 13.434331,14.55387 z m -8.396457,-14.55387 c 0,-9.06818 4.36616,-13.43435 8.396457,-13.43435 4.030297,0 8.396457,4.36617 8.396457,13.43435 0,9.06816 -4.36616,13.43433 -8.396457,13.43433 -4.030297,0 -8.396457,-4.36617 -8.396457,-13.43433 z"/>
    <path fill="#314c48" stroke="#314c48" stroke-width="2.6559" stroke-linecap="square" d="m 22.33877,122.45868 v 0.76404 c 1.451671,0.0765 3.820194,2.13932 3.820194,5.57749 v 40.79962 c 0,3.43816 -2.368523,5.50107 -3.820194,5.57747 v 0.76403 h 15.280758 v -0.76403 c -1.451671,-0.0765 -3.820185,-2.13931 -3.820185,-5.57747 v -18.9221 h 6.265107 c 2.062898,0 3.590978,0.61123 4.202206,3.05615 h 0.764045 v -7.64038 h -0.764045 c -0.611228,2.44492 -2.139308,3.05616 -4.202206,3.05616 h -6.265107 v -25.16289 h 8.022392 c 7.029151,0.0764 9.397664,1.83368 11.919003,6.1887 l 0.764026,-0.0765 -3.132549,-7.6404 z"/>
    <path fill="#fa7900" d="m 158.69074,145.44894 v 3.48362 h -3.47953 v 2.14562 h 3.47953 v 2.30678 a 1.07078,1.07078 45 0 0 1.07078,1.07078 h 1.07078 v -3.37756 h 4.04196 l -0.65625,-1.07281 v -1.07281 h -3.38571 v -2.539 a 0.94462475,0.94462475 45 0 0 -0.94462,-0.94462 z" transform="matrix(3.2103166,0,0,3.2103166,-370.24281,-331.44864)"/>
    <path fill="#314c48" stroke="#314c48" stroke-width="2.76486" stroke-linecap="round" stroke-linejoin="round" d="m 139.05828,170.08063 v 20.53695 h 7.26293 v -20.53695 h -2.02488 -3.22647 z"/>
    <path fill="#314c48" d="m 146.07979,153.56015 v 10.84304 h -3.43754 c -1.89852,0 -3.43755,-1.53903 -3.43755,-3.43755 v -7.40549 h -11.17039 v -3.44406 l -1.32008,-3.44406 h 12.49047 c 1.1536,0.50623 2.31933,0.70059 3.09648,1.67193 0.77716,0.97141 0,2.33146 1.16573,3.49719 1.1657,1.16573 2.61288,1.719 2.61288,1.719 z"/>
    <path fill="#fa7900" stroke-width="2.64615" d="m 276.21993,144.3539 c -4.22162,0 -5.27702,5.27702 -5.73876,6.92608 v -5.93663 h -13.45638 v 7.65167 c 2.44062,0 3.1662,1.12136 3.23217,3.10025 v 0 9.63055 c 0,0.066 0,0.13192 0,0.19788 0,2.63851 -0.46174,3.62795 -3.23217,3.62795 v 7.65167 h 16.75452 v -7.65167 c -2.57255,0 -3.29814,-1.12136 -3.29814,-3.16621 v -10.02633 c 0,-1.78099 0.26386,-3.62794 1.38522,-3.62794 1.31926,0 1.31926,2.17677 4.68335,2.17677 2.50658,0 4.35354,-2.1108 4.35354,-5.67279 0,-2.50659 -0.92349,-4.88125 -4.68335,-4.88125 z"/>
    <path fill="#fa7900" stroke-width="2.64615" d="m 246.51835,141.64943 c 3.10024,0 5.60682,-2.70447 5.60682,-5.73875 -0.066,-3.23216 -2.63851,-5.73876 -5.80472,-5.73876 -3.10024,0.066 -5.67279,2.63852 -5.60681,5.73876 0.066,3.29814 2.57253,5.73875 5.80471,5.73875 z"/>
    <path fill="#fa7900" stroke-width="2.64615" d="m 251.49791,166.38544 v -21.04209 h -13.45639 v 7.71763 c 2.44062,0 3.16622,1.0554 3.23218,3.03429 v 0 9.69651 c 0,0.066 0,0.066 0,0.13192 0,2.70447 -0.46174,3.69392 -3.23218,3.69392 v 7.65166 h 16.75453 v -7.65166 c -2.57255,0 -3.29814,-1.18733 -3.29814,-3.23218 z"/>
    <path fill="#fa7900" stroke-width="2.64615" d="m 235.12658,152.99502 v -7.65167 h -13.52235 v 4.02372 c -0.92348,-2.3087 -4.4195,-5.07913 -9.69652,-5.07913 -9.10285,0 -15.17141,7.51975 -15.17141,17.28223 0,9.76247 6.06856,16.62259 15.17141,16.62259 5.60683,0 8.90497,-3.56198 10.02634,-5.21105 l 0.13191,4.22161 h 13.06062 v -7.65167 c -2.50658,0 -3.23217,-1.12136 -3.29813,-3.23216 v -9.49864 c 0,-2.77043 0.46173,-3.82583 3.29813,-3.82583 z m -13.52235,8.57515 c 0,4.22161 -2.70447,8.04745 -7.12397,8.04745 -4.15565,0 -7.25589,-3.49603 -7.25589,-8.3113 0,-4.94721 3.10024,-8.37727 7.25589,-8.37727 4.4195,0 7.12397,3.62796 7.12397,8.37727 z"/>
    <path fill="#fa7900" stroke-width="2.57758" d="m 186.96587,122.70564 h -22.95501 v 8.01136 h 0.72559 c 1.5831,0 3.23218,0.12517 3.23218,2.37836 v 33.78421 c 0,0.81365 -0.26386,1.37695 -0.59367,1.75249 -0.65963,0.56329 -1.64907,0.62588 -2.63851,0.62588 h -0.72559 v 8.01134 h 18.93129 v -8.01134 h -0.79156 c -1.5831,0 -3.16621,-0.12518 -3.16621,-2.37837 v -12.7113 h 7.98149 c 8.04745,0 15.10545,-6.52249 15.10545,-15.03455 0,-8.19912 -6.79415,-16.42808 -15.10545-16.42808 z m -1.64907,23.57646 h -6.33242 V 130.717 h 6.33242 c 3.43007,0 5.47491,5.2247 5.47491,8.41672 0,3.19202 -2.11081,7.14838 -5.47491,7.14838 z"/>
  </g>
</svg>
